<!-- Generated by IcoMoon.io -->
<svg version="1.1" xmlns="http://www.w3.org/2000/svg" width="45" height="32" viewBox="0 0 45 32">
<title>brand</title>
<path d="M5.627 24.559c0.157 0.175 0.241 0.394 0.236 0.619 0.008 0.147-0.021 0.293-0.084 0.429s-0.16 0.256-0.282 0.354c-0.305 0.207-0.683 0.309-1.065 0.286h-1.872v-3.925h1.834c0.362-0.022 0.721 0.071 1.016 0.261 0.118 0.089 0.212 0.202 0.274 0.329s0.090 0.266 0.082 0.405c0.011 0.216-0.065 0.429-0.213 0.6-0.142 0.156-0.339 0.264-0.558 0.307 0.248 0.041 0.473 0.16 0.633 0.335zM3.431 23.966h0.784c0.178 0.012 0.355-0.034 0.498-0.13 0.059-0.048 0.105-0.108 0.134-0.174s0.041-0.138 0.034-0.209c0.006-0.071-0.006-0.142-0.035-0.209s-0.073-0.126-0.131-0.175c-0.148-0.099-0.33-0.146-0.513-0.132h-0.771v1.030zM4.79 25.471c0.063-0.049 0.112-0.111 0.144-0.18s0.046-0.144 0.041-0.219c0.005-0.076-0.010-0.151-0.043-0.221s-0.083-0.132-0.147-0.181c-0.153-0.102-0.342-0.153-0.532-0.142h-0.822v1.079h0.833c0.187 0.010 0.373-0.038 0.526-0.136z"></path>
<path d="M9.375 26.246l-1.020-1.534h-0.383v1.534h-0.877v-3.925h1.661c0.419-0.026 0.833 0.093 1.156 0.334 0.232 0.213 0.372 0.494 0.395 0.791s-0.074 0.593-0.271 0.833c-0.205 0.211-0.485 0.352-0.792 0.399l1.086 1.568h-0.954zM7.972 24.177h0.718c0.498 0 0.748-0.198 0.748-0.594 0.005-0.081-0.009-0.162-0.040-0.238s-0.080-0.145-0.143-0.203c-0.158-0.118-0.36-0.175-0.564-0.159h-0.726l0.008 1.195z"></path>
<path d="M14.171 25.456h-1.748l-0.309 0.79h-0.92l1.606-3.881h0.995l1.599 3.881h-0.92l-0.302-0.79zM13.937 24.862l-0.639-1.657-0.639 1.657h1.278z"></path>
<path d="M20.175 26.246h-0.871l-1.953-2.669v2.669h-0.869v-3.925h0.869l1.953 2.684v-2.684h0.871v3.925z"></path>
<path d="M25.146 25.307c-0.18 0.296-0.455 0.537-0.788 0.692-0.379 0.172-0.8 0.257-1.225 0.247h-1.55v-3.925h1.55c0.424-0.010 0.844 0.073 1.225 0.242 0.333 0.151 0.608 0.39 0.788 0.684 0.179 0.319 0.273 0.672 0.273 1.030s-0.093 0.71-0.273 1.030zM24.149 25.213c0.249-0.261 0.385-0.593 0.385-0.937s-0.137-0.676-0.385-0.937c-0.3-0.236-0.692-0.356-1.090-0.334h-0.605v2.54h0.605c0.398 0.022 0.79-0.097 1.090-0.334z"></path>
<path d="M14.716 0.491c0 0 11.243 3.821 11.004 9.351v9.353c0 0-11.234-3.823-11-9.353l-0.004-9.351z"></path>
<path d="M35.737 17.004c2.123-1.316 4.579-2.13 7.143-2.37v-2.928c-2.954 1.025-5.46 2.884-7.143 5.298z"></path>
<path d="M34.461 17.887c1.738-3.15 4.751-5.581 8.419-6.793v-8.436c0 0-16.011 5.443-15.673 13.318v13.316c0 0 0.713-0.244 1.836-0.7 0-0.426 0-0.855 0.051-1.287 0.331-3.656 2.262-7.043 5.367-9.418z"></path>
<path d="M32.938 22.833c0.084-0.923 0.272-1.837 0.56-2.726-1.933 2.051-3.104 4.595-3.348 7.276-0.023 0.253-0.036 0.506-0.043 0.767 0.909-0.393 1.968-0.884 3.080-1.461-0.284-1.268-0.368-2.566-0.249-3.856z"></path>
<path d="M33.575 22.881c-0.107 1.167-0.040 2.341 0.198 3.491 4.374-2.356 9.29-5.997 9.1-10.398v-0.383c-3.125 0.315-6.049 1.545-8.323 3.501-0.532 1.212-0.861 2.489-0.975 3.789z"></path>
</svg>
