<!-- Generated by IcoMoon.io -->
<svg version="1.1" xmlns="http://www.w3.org/2000/svg" width="35" height="32" viewBox="0 0 35 32">
<title>diagram</title>
<path fill="#4d5ae5" d="M16.665 14.734h1.050v4.724h-1.050v-4.724z"></path>
<path fill="#4d5ae5" d="M20.864 16.834h1.050v2.624h-1.050v-2.624z"></path>
<path fill="#4d5ae5" d="M12.466 18.408h1.050v1.050h-1.050v-1.050z"></path>
<path fill="#4d5ae5" d="M9.317 17.883h1.050v1.575h-1.050v-1.575z"></path>
<path fill="#2e2f42" d="M3.544 27.856h25.193c0.87 0 1.575-0.705 1.575-1.575v-2.099c0-0.87-0.705-1.575-1.575-1.575h-0.525v-13.089l2.981-2.824c0.692 0.341 1.529 0.134 1.982-0.491s0.39-1.485-0.15-2.037-1.398-0.634-2.033-0.195c-0.635 0.439-0.86 1.272-0.534 1.971l-2.246 2.129v-1.211c0-0.87-0.705-1.575-1.575-1.575h-20.994c-0.87 0-1.575 0.705-1.575 1.575v15.746h-0.525c-0.87 0-1.575 0.705-1.575 1.575v2.099c0 0.87 0.705 1.575 1.575 1.575zM31.886 4.762c0.29 0 0.525 0.235 0.525 0.525s-0.235 0.525-0.525 0.525c-0.29 0-0.525-0.235-0.525-0.525s0.235-0.525 0.525-0.525zM5.118 6.862c0-0.29 0.235-0.525 0.525-0.525h20.994c0.29 0 0.525 0.235 0.525 0.525v2.204l-1.050 0.997v-2.152c0-0.29-0.235-0.525-0.525-0.525h-18.895c-0.29 0-0.525 0.235-0.525 0.525v13.121c0 0.29 0.235 0.525 0.525 0.525h18.895c0.29 0 0.525-0.235 0.525-0.525v-9.525l1.050-0.995v12.095h-22.044v-15.746zM9.842 13.685c-0.71-0.002-1.334 0.471-1.522 1.156s0.104 1.411 0.714 1.773c0.61 0.362 1.388 0.271 1.899-0.222l1.824 0.915c0.212 0.106 0.469 0.056 0.627-0.121l3.878-4.363 3.812 2.857c0.204 0.153 0.49 0.137 0.676-0.039l3.313-3.139v8.006h-17.845v-12.072h17.845v2.619l-3.713 3.517-3.844-2.882c-0.218-0.164-0.526-0.133-0.707 0.071l-3.932 4.424-1.47-0.735c0.011-0.063 0.017-0.127 0.020-0.19 0-0.87-0.705-1.575-1.575-1.575zM10.367 15.259c0 0.29-0.235 0.525-0.525 0.525s-0.525-0.235-0.525-0.525c0-0.29 0.235-0.525 0.525-0.525s0.525 0.235 0.525 0.525zM13.516 23.657h5.249v0.525c0 0.29-0.235 0.525-0.525 0.525h-4.199c-0.29 0-0.525-0.235-0.525-0.525v-0.525zM3.019 24.182c0-0.29 0.235-0.525 0.525-0.525h8.923v0.525c0 0.87 0.705 1.575 1.575 1.575h4.199c0.869 0 1.575-0.705 1.575-1.575v-0.525h8.922c0.29 0 0.525 0.235 0.525 0.525v2.099c0 0.29-0.235 0.525-0.525 0.525h-25.193c-0.29 0-0.525-0.235-0.525-0.525v-2.099z"></path>
</svg>
