<!-- Generated by IcoMoon.io -->
<svg version="1.1" xmlns="http://www.w3.org/2000/svg" width="60" height="32" viewBox="0 0 60 32">
<title>foster</title>
<path d="M11.628 8.523h-0.002c-1.624 0-2.941 1.187-2.941 2.652v0.002c0 1.464 1.317 2.652 2.941 2.652h0.002c1.624 0 2.941-1.187 2.941-2.652v-0.002c0-1.464-1.317-2.652-2.941-2.652z"></path>
<path d="M33.335 7.675c-0.005-2.034-0.903-3.984-2.498-5.422s-3.757-2.249-6.013-2.253v0c-2.257 0.004-4.42 0.813-6.016 2.252s-2.494 3.389-2.499 5.423v11.216c0 0 17.024-1.709 17.026-11.215v-0.002z"></path>
<path d="M2.723 22.573c0.004 1.415 0.629 2.772 1.739 3.773s2.614 1.565 4.184 1.569c1.569-0.004 3.073-0.568 4.183-1.569s1.735-2.356 1.74-3.771v-7.805c0 0-11.845 1.19-11.845 7.803zM8.646 23.972c-0.307 0-0.607-0.082-0.862-0.236s-0.454-0.372-0.571-0.628-0.148-0.537-0.088-0.808c0.060-0.271 0.208-0.52 0.424-0.716s0.493-0.329 0.794-0.383c0.301-0.054 0.613-0.026 0.896 0.080s0.526 0.285 0.696 0.515c0.17 0.23 0.261 0.5 0.261 0.777 0.001 0.184-0.039 0.366-0.116 0.537s-0.192 0.325-0.336 0.455c-0.144 0.13-0.315 0.234-0.504 0.304s-0.391 0.107-0.595 0.107v-0.005z"></path>
<path d="M19.478 21.457v2.904h-0.598v-2.904h0.598zM20.635 22.698v0.467h-1.32v-0.467h1.32zM20.775 21.457v0.469h-1.46v-0.469h1.46zM23.508 22.841v0.138c0 0.221-0.030 0.419-0.090 0.594s-0.144 0.325-0.253 0.449c-0.109 0.122-0.239 0.216-0.391 0.281-0.15 0.065-0.317 0.098-0.501 0.098-0.182 0-0.349-0.033-0.501-0.098-0.15-0.065-0.281-0.159-0.391-0.281-0.11-0.124-0.196-0.273-0.257-0.449-0.060-0.176-0.090-0.374-0.090-0.594v-0.138c0-0.222 0.030-0.42 0.090-0.594 0.060-0.176 0.144-0.325 0.253-0.449 0.11-0.124 0.241-0.218 0.391-0.283 0.152-0.065 0.318-0.098 0.501-0.098 0.184 0 0.35 0.033 0.501 0.098 0.152 0.065 0.282 0.16 0.391 0.283 0.11 0.124 0.195 0.273 0.255 0.449 0.061 0.174 0.092 0.372 0.092 0.594zM22.903 22.979v-0.142c0-0.154-0.014-0.29-0.042-0.407s-0.069-0.215-0.124-0.295-0.121-0.14-0.2-0.18c-0.078-0.041-0.168-0.062-0.269-0.062s-0.191 0.021-0.269 0.062c-0.077 0.040-0.143 0.1-0.197 0.18-0.053 0.080-0.094 0.178-0.122 0.295s-0.042 0.253-0.042 0.407v0.142c0 0.153 0.014 0.289 0.042 0.407 0.028 0.117 0.069 0.216 0.124 0.297 0.055 0.080 0.121 0.14 0.2 0.181s0.168 0.062 0.269 0.062c0.101 0 0.191-0.021 0.269-0.062s0.144-0.102 0.197-0.181c0.053-0.081 0.094-0.18 0.122-0.297 0.028-0.118 0.042-0.254 0.042-0.407zM25.451 23.601c0-0.052-0.008-0.098-0.024-0.14-0.015-0.043-0.043-0.081-0.084-0.116-0.041-0.036-0.099-0.071-0.174-0.106s-0.171-0.071-0.289-0.108c-0.132-0.043-0.257-0.090-0.375-0.144-0.117-0.053-0.221-0.115-0.311-0.185-0.089-0.072-0.16-0.155-0.211-0.249-0.051-0.094-0.076-0.204-0.076-0.329 0-0.121 0.027-0.231 0.080-0.329 0.053-0.1 0.128-0.185 0.223-0.255 0.096-0.072 0.209-0.127 0.339-0.166 0.132-0.039 0.276-0.058 0.433-0.058 0.214 0 0.401 0.039 0.56 0.116s0.283 0.183 0.371 0.317c0.089 0.134 0.134 0.288 0.134 0.461h-0.594c0-0.085-0.018-0.16-0.054-0.223-0.035-0.065-0.088-0.116-0.16-0.154-0.070-0.037-0.16-0.056-0.267-0.056-0.104 0-0.19 0.016-0.259 0.048-0.069 0.031-0.121 0.072-0.156 0.126-0.035 0.052-0.052 0.11-0.052 0.176 0 0.049 0.012 0.094 0.036 0.134 0.025 0.040 0.063 0.077 0.112 0.112s0.11 0.067 0.181 0.098c0.072 0.031 0.155 0.060 0.249 0.090 0.158 0.048 0.297 0.102 0.417 0.162 0.121 0.060 0.222 0.127 0.303 0.201s0.142 0.159 0.184 0.253c0.041 0.094 0.062 0.201 0.062 0.321 0 0.126-0.025 0.239-0.074 0.339s-0.12 0.184-0.213 0.253c-0.093 0.069-0.204 0.122-0.333 0.158s-0.273 0.054-0.433 0.054c-0.144 0-0.285-0.019-0.425-0.056-0.14-0.039-0.267-0.096-0.381-0.174-0.113-0.077-0.203-0.176-0.271-0.295s-0.102-0.261-0.102-0.425h0.6c0 0.090 0.014 0.167 0.042 0.229s0.067 0.113 0.118 0.152c0.052 0.039 0.113 0.066 0.183 0.084 0.072 0.017 0.15 0.026 0.235 0.026 0.104 0 0.189-0.015 0.255-0.044 0.068-0.029 0.118-0.070 0.15-0.122 0.033-0.052 0.050-0.11 0.050-0.176zM27.754 21.457v2.904h-0.596v-2.904h0.596zM28.648 21.457v0.469h-2.37v-0.469h2.37zM30.938 23.895v0.467h-1.546v-0.467h1.546zM29.587 21.457v2.904h-0.598v-2.904h0.598zM30.736 22.64v0.455h-1.344v-0.455h1.344zM30.936 21.457v0.469h-1.544v-0.469h1.544zM31.287 21.457h1.083c0.222 0 0.413 0.033 0.572 0.1 0.161 0.067 0.285 0.165 0.371 0.295s0.13 0.291 0.13 0.481c0 0.156-0.027 0.289-0.080 0.401-0.052 0.11-0.126 0.203-0.221 0.277-0.094 0.073-0.205 0.132-0.333 0.176l-0.189 0.1h-0.941l-0.004-0.467h0.7c0.105 0 0.192-0.019 0.261-0.056s0.121-0.089 0.156-0.156c0.036-0.066 0.054-0.144 0.054-0.231 0-0.093-0.017-0.174-0.052-0.241s-0.087-0.12-0.158-0.156-0.159-0.054-0.265-0.054h-0.485v2.435h-0.598v-2.904zM32.911 24.361l-0.662-1.294 0.632-0.004 0.67 1.271v0.028h-0.64zM36.052 23.326h-0.74v-0.467h0.74c0.114 0 0.207-0.019 0.279-0.056 0.072-0.039 0.124-0.092 0.158-0.16s0.050-0.144 0.050-0.229c0-0.086-0.017-0.167-0.050-0.241s-0.086-0.134-0.158-0.18-0.165-0.068-0.279-0.068h-0.533v2.435h-0.598v-2.904h1.131c0.227 0 0.422 0.041 0.584 0.124 0.164 0.081 0.289 0.193 0.375 0.337s0.13 0.308 0.13 0.493c0 0.188-0.043 0.35-0.13 0.487s-0.211 0.243-0.375 0.317c-0.162 0.074-0.357 0.112-0.584 0.112zM39.503 23.895v0.467h-1.546v-0.467h1.546zM38.153 21.457v2.904h-0.598v-2.904h0.598zM39.301 22.64v0.455h-1.344v-0.455h1.344zM39.501 21.457v0.469h-1.544v-0.469h1.544zM41.19 21.457v2.904h-0.596v-2.904h0.596zM42.084 21.457v0.469h-2.37v-0.469h2.37zM44.374 23.895v0.467h-1.546v-0.467h1.546zM43.024 21.457v2.904h-0.598v-2.904h0.598zM44.173 22.64v0.455h-1.344v-0.455h1.344zM44.372 21.457v0.469h-1.544v-0.469h1.544zM44.723 21.457h1.083c0.222 0 0.413 0.033 0.573 0.1 0.161 0.067 0.285 0.165 0.371 0.295s0.13 0.291 0.13 0.481c0 0.156-0.027 0.289-0.080 0.401-0.052 0.11-0.126 0.203-0.221 0.277-0.094 0.073-0.205 0.132-0.333 0.176l-0.19 0.1h-0.941l-0.004-0.467h0.7c0.105 0 0.192-0.019 0.261-0.056s0.121-0.089 0.156-0.156c0.036-0.066 0.054-0.144 0.054-0.231 0-0.093-0.017-0.174-0.052-0.241s-0.087-0.12-0.158-0.156c-0.070-0.036-0.159-0.054-0.265-0.054h-0.485v2.435h-0.598v-2.904zM46.347 24.361l-0.662-1.294 0.632-0.004 0.67 1.271v0.028h-0.64zM48.852 23.601c0-0.052-0.008-0.098-0.024-0.14-0.015-0.043-0.043-0.081-0.084-0.116-0.041-0.036-0.099-0.071-0.174-0.106s-0.171-0.071-0.289-0.108c-0.132-0.043-0.257-0.090-0.375-0.144-0.117-0.053-0.221-0.115-0.311-0.185-0.089-0.072-0.16-0.155-0.211-0.249-0.051-0.094-0.076-0.204-0.076-0.329 0-0.121 0.027-0.231 0.080-0.329 0.053-0.1 0.128-0.185 0.223-0.255 0.096-0.072 0.209-0.127 0.339-0.166 0.132-0.039 0.276-0.058 0.433-0.058 0.214 0 0.401 0.039 0.56 0.116s0.283 0.183 0.371 0.317c0.089 0.134 0.134 0.288 0.134 0.461h-0.594c0-0.085-0.018-0.16-0.054-0.223-0.035-0.065-0.088-0.116-0.16-0.154-0.070-0.037-0.16-0.056-0.267-0.056-0.104 0-0.19 0.016-0.259 0.048-0.069 0.031-0.121 0.072-0.156 0.126-0.035 0.052-0.052 0.11-0.052 0.176 0 0.049 0.012 0.094 0.036 0.134 0.025 0.040 0.063 0.077 0.112 0.112s0.11 0.067 0.181 0.098c0.072 0.031 0.155 0.060 0.249 0.090 0.158 0.048 0.297 0.102 0.417 0.162 0.121 0.060 0.222 0.127 0.303 0.201s0.142 0.159 0.184 0.253c0.041 0.094 0.062 0.201 0.062 0.321 0 0.126-0.025 0.239-0.074 0.339s-0.12 0.184-0.213 0.253c-0.093 0.069-0.204 0.122-0.333 0.158s-0.273 0.054-0.433 0.054c-0.144 0-0.285-0.019-0.425-0.056-0.14-0.039-0.267-0.096-0.381-0.174-0.113-0.077-0.203-0.176-0.271-0.295s-0.102-0.261-0.102-0.425h0.6c0 0.090 0.014 0.167 0.042 0.229s0.067 0.113 0.118 0.152c0.052 0.039 0.113 0.066 0.184 0.084 0.072 0.017 0.15 0.026 0.235 0.026 0.104 0 0.189-0.015 0.255-0.044 0.068-0.029 0.118-0.070 0.15-0.122 0.033-0.052 0.050-0.11 0.050-0.176z"></path>
</svg>
